<svg width="20" height="20" viewBox="0 0 20 20" fill="none" xmlns="http://www.w3.org/2000/svg">
<path d="M9.99996 18.3333C5.39746 18.3333 1.66663 14.6025 1.66663 9.99996C1.66663 5.39746 5.39746 1.66663 9.99996 1.66663C14.6025 1.66663 18.3333 5.39746 18.3333 9.99996C18.3333 14.6025 14.6025 18.3333 9.99996 18.3333ZM9.99996 16.6666C11.7681 16.6666 13.4638 15.9642 14.714 14.714C15.9642 13.4638 16.6666 11.7681 16.6666 9.99996C16.6666 8.23185 15.9642 6.53616 14.714 5.28591C13.4638 4.03567 11.7681 3.33329 9.99996 3.33329C8.23185 3.33329 6.53616 4.03567 5.28591 5.28591C4.03567 6.53616 3.33329 8.23185 3.33329 9.99996C3.33329 11.7681 4.03567 13.4638 5.28591 14.714C6.53616 15.9642 8.23185 16.6666 9.99996 16.6666ZM5.83329 14.1666C5.83329 13.0616 6.27228 12.0017 7.05368 11.2203C7.83508 10.4389 8.89489 9.99996 9.99996 9.99996C11.105 9.99996 12.1648 10.4389 12.9462 11.2203C13.7276 12.0017 14.1666 13.0616 14.1666 14.1666H12.5C12.5 13.5036 12.2366 12.8677 11.7677 12.3989C11.2989 11.93 10.663 11.6666 9.99996 11.6666C9.33692 11.6666 8.70103 11.93 8.23219 12.3989C7.76335 12.8677 7.49996 13.5036 7.49996 14.1666H5.83329ZM6.66663 9.16663C6.33511 9.16663 6.01716 9.03493 5.78274 8.80051C5.54832 8.56609 5.41663 8.24815 5.41663 7.91663C5.41663 7.58511 5.54832 7.26716 5.78274 7.03274C6.01716 6.79832 6.33511 6.66663 6.66663 6.66663C6.99815 6.66663 7.31609 6.79832 7.55051 7.03274C7.78493 7.26716 7.91663 7.58511 7.91663 7.91663C7.91663 8.24815 7.78493 8.56609 7.55051 8.80051C7.31609 9.03493 6.99815 9.16663 6.66663 9.16663ZM13.3333 9.16663C13.0018 9.16663 12.6838 9.03493 12.4494 8.80051C12.215 8.56609 12.0833 8.24815 12.0833 7.91663C12.0833 7.58511 12.215 7.26716 12.4494 7.03274C12.6838 6.79832 13.0018 6.66663 13.3333 6.66663C13.6648 6.66663 13.9828 6.79832 14.2172 7.03274C14.4516 7.26716 14.5833 7.58511 14.5833 7.91663C14.5833 8.24815 14.4516 8.56609 14.2172 8.80051C13.9828 9.03493 13.6648 9.16663 13.3333 9.16663Z" fill="#939B9D"/>
</svg>
