<svg width="20" height="20" viewBox="0 0 20 20" fill="none" xmlns="http://www.w3.org/2000/svg">
<path d="M9.99996 1.66667C14.6025 1.66667 18.3333 5.39751 18.3333 10C18.3333 10.6058 18.2691 11.1958 18.1458 11.765L16.6608 10.2792C16.7219 8.81646 16.2999 7.3743 15.4598 6.17531C14.6198 4.97633 13.4084 4.0872 12.0128 3.64519C10.6171 3.20318 9.11475 3.23286 7.73763 3.72966C6.36052 4.22646 5.18522 5.16275 4.39318 6.39398C3.60115 7.62521 3.23641 9.08292 3.35529 10.5421C3.47417 12.0012 4.07004 13.3807 5.05093 14.4675C6.03181 15.5543 7.34316 16.288 8.78253 16.5553C10.2219 16.8226 11.7092 16.6088 13.015 15.9467C13.333 16.4508 13.7805 16.8603 14.3108 17.1325C13.011 17.9201 11.5198 18.3355 9.99996 18.3333C5.39746 18.3333 1.66663 14.6025 1.66663 10C1.66663 5.39751 5.39746 1.66667 9.99996 1.66667ZM15.8333 11.81L17.0116 12.9883C17.241 13.2176 17.3985 13.5089 17.4648 13.8264C17.5311 14.1439 17.5033 14.4738 17.3849 14.7757C17.2664 15.0777 17.0625 15.3385 16.798 15.5262C16.5335 15.7139 16.22 15.8204 15.8959 15.8326C15.5717 15.8447 15.2511 15.7621 14.9733 15.5947C14.6955 15.4273 14.4725 15.1825 14.3318 14.8903C14.191 14.5981 14.1386 14.2712 14.1809 13.9497C14.2232 13.6281 14.3584 13.3259 14.57 13.08L14.655 12.9883L15.8333 11.81ZM9.99996 12.5C11.2216 12.5 12.3208 13.0258 13.0833 13.8642L12.2958 14.5808C11.6375 14.3183 10.8483 14.1667 9.99996 14.1667C9.15163 14.1667 8.36246 14.3192 7.70413 14.58L6.91663 13.8633C7.3068 13.4333 7.78277 13.0898 8.31384 12.855C8.84491 12.6202 9.41929 12.4992 9.99996 12.5ZM7.08329 8.33334C7.41481 8.33334 7.73276 8.46503 7.96718 8.69945C8.2016 8.93388 8.33329 9.25182 8.33329 9.58334C8.33329 9.91486 8.2016 10.2328 7.96718 10.4672C7.73276 10.7016 7.41481 10.8333 7.08329 10.8333C6.75177 10.8333 6.43383 10.7016 6.19941 10.4672C5.96499 10.2328 5.83329 9.91486 5.83329 9.58334C5.83329 9.25182 5.96499 8.93388 6.19941 8.69945C6.43383 8.46503 6.75177 8.33334 7.08329 8.33334ZM12.9166 8.33334C13.2481 8.33334 13.5661 8.46503 13.8005 8.69945C14.0349 8.93388 14.1666 9.25182 14.1666 9.58334C14.1666 9.91486 14.0349 10.2328 13.8005 10.4672C13.5661 10.7016 13.2481 10.8333 12.9166 10.8333C12.5851 10.8333 12.2672 10.7016 12.0327 10.4672C11.7983 10.2328 11.6666 9.91486 11.6666 9.58334C11.6666 9.25182 11.7983 8.93388 12.0327 8.69945C12.2672 8.46503 12.5851 8.33334 12.9166 8.33334Z" fill="#FF7A30"/>
</svg>
