<svg width="20" height="20" viewBox="0 0 20 20" fill="none" xmlns="http://www.w3.org/2000/svg">
<path fill-rule="evenodd" clip-rule="evenodd" d="M9.0625 6.83975e-09C8.48707 -4.54655e-05 7.9348 0.226644 7.52535 0.630951C7.11589 1.03526 6.88223 1.58462 6.875 2.16C6.80503 2.18823 6.73544 2.2174 6.66625 2.2475C6.25433 1.84541 5.70052 1.62189 5.1249 1.6254C4.54928 1.62891 3.99823 1.85916 3.59125 2.26625L2.26625 3.59125C1.85916 3.99823 1.62891 4.54928 1.6254 5.1249C1.62189 5.70052 1.84541 6.25433 2.2475 6.66625C2.2174 6.73544 2.18823 6.80503 2.16 6.875C1.58462 6.88223 1.03526 7.11589 0.630951 7.52535C0.226644 7.9348 -4.54655e-05 8.48707 6.83975e-09 9.0625V10.9375C6.83975e-09 12.1375 0.965 13.11 2.16 13.125L2.2475 13.3337C1.84541 13.7457 1.62189 14.2995 1.6254 14.8751C1.62891 15.4507 1.85916 16.0018 2.26625 16.4087L3.59125 17.7338C3.99823 18.1408 4.54928 18.3711 5.1249 18.3746C5.70052 18.3781 6.25433 18.1546 6.66625 17.7525L6.875 17.84C6.88223 18.4154 7.11589 18.9647 7.52535 19.369C7.9348 19.7734 8.48707 20 9.0625 20H10.9375C11.5129 20 12.0652 19.7734 12.4747 19.369C12.8841 18.9647 13.1178 18.4154 13.125 17.84L13.3337 17.7525C13.7457 18.1546 14.2995 18.3781 14.8751 18.3746C15.4507 18.3711 16.0018 18.1408 16.4087 17.7338L17.7338 16.4087C18.1408 16.0018 18.3711 15.4507 18.3746 14.8751C18.3781 14.2995 18.1546 13.7457 17.7525 13.3337L17.84 13.125C18.4154 13.1178 18.9647 12.8841 19.369 12.4747C19.7734 12.0652 20 11.5129 20 10.9375V9.0625C20 8.48707 19.7734 7.9348 19.369 7.52535C18.9647 7.11589 18.4154 6.88223 17.84 6.875C17.8119 6.80499 17.7827 6.7354 17.7525 6.66625C18.1546 6.25433 18.3781 5.70052 18.3746 5.1249C18.3711 4.54928 18.1408 3.99823 17.7338 3.59125L16.4087 2.26625C16.0018 1.85916 15.4507 1.62891 14.8751 1.6254C14.2995 1.62189 13.7457 1.84541 13.3337 2.2475C13.2646 2.21741 13.195 2.18824 13.125 2.16C13.1178 1.58462 12.8841 1.03526 12.4747 0.630951C12.0652 0.226644 11.5129 -4.54655e-05 10.9375 6.83975e-09L9.0625 6.83975e-09ZM8.75 2.1875C8.75 2.10462 8.78292 2.02513 8.84153 1.96653C8.90013 1.90792 8.97962 1.875 9.0625 1.875H10.9375C11.0204 1.875 11.0999 1.90792 11.1585 1.96653C11.2171 2.02513 11.25 2.10462 11.25 2.1875V2.825C11.25 3.2375 11.52 3.6 11.915 3.72125C12.3225 3.84625 12.715 4.00875 13.085 4.20625C13.2624 4.30111 13.4656 4.33641 13.6646 4.30692C13.8635 4.27744 14.0478 4.18473 14.19 4.0425L14.64 3.5925C14.669 3.5634 14.7035 3.54031 14.7415 3.52455C14.7794 3.5088 14.8201 3.50069 14.8612 3.50069C14.9024 3.50069 14.9431 3.5088 14.981 3.52455C15.019 3.54031 15.0535 3.5634 15.0825 3.5925L16.4075 4.9175C16.4366 4.94653 16.4597 4.98101 16.4754 5.01898C16.4912 5.05694 16.4993 5.09765 16.4993 5.13875C16.4993 5.17985 16.4912 5.22056 16.4754 5.25852C16.4597 5.29649 16.4366 5.33097 16.4075 5.36L15.9575 5.81C15.8153 5.95225 15.7226 6.13647 15.6931 6.33545C15.6636 6.53443 15.6989 6.73762 15.7938 6.915C15.9913 7.285 16.155 7.6775 16.2787 8.085C16.3372 8.27746 16.456 8.44601 16.6176 8.56576C16.7793 8.68551 16.9751 8.7501 17.1763 8.75H17.8125C17.8954 8.75 17.9749 8.78292 18.0335 8.84153C18.0921 8.90013 18.125 8.97962 18.125 9.0625V10.9375C18.125 11.0204 18.0921 11.0999 18.0335 11.1585C17.9749 11.2171 17.8954 11.25 17.8125 11.25H17.175C16.9741 11.2502 16.7785 11.3149 16.6171 11.4346C16.4558 11.5543 16.3372 11.7227 16.2787 11.915C16.1537 12.3225 15.9913 12.715 15.7938 13.085C15.6989 13.2624 15.6636 13.4656 15.6931 13.6646C15.7226 13.8635 15.8153 14.0478 15.9575 14.19L16.4075 14.64C16.4366 14.669 16.4597 14.7035 16.4754 14.7415C16.4912 14.7794 16.4993 14.8201 16.4993 14.8612C16.4993 14.9024 16.4912 14.9431 16.4754 14.981C16.4597 15.019 16.4366 15.0535 16.4075 15.0825L15.0825 16.4075C15.0535 16.4366 15.019 16.4597 14.981 16.4754C14.9431 16.4912 14.9024 16.4993 14.8612 16.4993C14.8201 16.4993 14.7794 16.4912 14.7415 16.4754C14.7035 16.4597 14.669 16.4366 14.64 16.4075L14.19 15.9575C14.0478 15.8153 13.8635 15.7226 13.6646 15.6931C13.4656 15.6636 13.2624 15.6989 13.085 15.7938C12.715 15.9913 12.3225 16.155 11.915 16.2787C11.7225 16.3372 11.554 16.456 11.4342 16.6176C11.3145 16.7793 11.2499 16.9751 11.25 17.1763V17.8125C11.25 17.8954 11.2171 17.9749 11.1585 18.0335C11.0999 18.0921 11.0204 18.125 10.9375 18.125H9.0625C8.97962 18.125 8.90013 18.0921 8.84153 18.0335C8.78292 17.9749 8.75 17.8954 8.75 17.8125V17.175C8.74983 16.9741 8.68512 16.7785 8.56539 16.6171C8.44566 16.4558 8.27726 16.3372 8.085 16.2787C7.6775 16.1537 7.285 15.9913 6.915 15.7938C6.73762 15.6989 6.53443 15.6636 6.33545 15.6931C6.13647 15.7226 5.95225 15.8153 5.81 15.9575L5.36 16.4075C5.33097 16.4366 5.29649 16.4597 5.25852 16.4754C5.22056 16.4912 5.17985 16.4993 5.13875 16.4993C5.09765 16.4993 5.05694 16.4912 5.01898 16.4754C4.98101 16.4597 4.94653 16.4366 4.9175 16.4075L3.5925 15.0825C3.5634 15.0535 3.54031 15.019 3.52455 14.981C3.5088 14.9431 3.50069 14.9024 3.50069 14.8612C3.50069 14.8201 3.5088 14.7794 3.52455 14.7415C3.54031 14.7035 3.5634 14.669 3.5925 14.64L4.0425 14.19C4.18473 14.0478 4.27744 13.8635 4.30692 13.6646C4.33641 13.4656 4.30111 13.2624 4.20625 13.085C4.00698 12.7117 3.84454 12.3198 3.72125 11.915C3.66278 11.7225 3.54397 11.554 3.38235 11.4342C3.22074 11.3145 3.02489 11.2499 2.82375 11.25H2.1875C2.10462 11.25 2.02513 11.2171 1.96653 11.1585C1.90792 11.0999 1.875 11.0204 1.875 10.9375V9.0625C1.875 8.97962 1.90792 8.90013 1.96653 8.84153C2.02513 8.78292 2.10462 8.75 2.1875 8.75H2.825C3.02593 8.74983 3.22149 8.68512 3.38286 8.56539C3.54422 8.44566 3.66285 8.27726 3.72125 8.085C3.84625 7.6775 4.00875 7.285 4.20625 6.915C4.30111 6.73762 4.33641 6.53443 4.30692 6.33545C4.27744 6.13647 4.18473 5.95225 4.0425 5.81L3.5925 5.36C3.5634 5.33097 3.54031 5.29649 3.52455 5.25852C3.5088 5.22056 3.50069 5.17985 3.50069 5.13875C3.50069 5.09765 3.5088 5.05694 3.52455 5.01898C3.54031 4.98101 3.5634 4.94653 3.5925 4.9175L4.9175 3.5925C4.94653 3.5634 4.98101 3.54031 5.01898 3.52455C5.05694 3.5088 5.09765 3.50069 5.13875 3.50069C5.17985 3.50069 5.22056 3.5088 5.25852 3.52455C5.29649 3.54031 5.33097 3.5634 5.36 3.5925L5.81 4.0425C5.95225 4.18473 6.13647 4.27744 6.33545 4.30692C6.53443 4.33641 6.73762 4.30111 6.915 4.20625C7.285 4.00875 7.6775 3.845 8.085 3.72125C8.27746 3.66278 8.44601 3.54397 8.56576 3.38235C8.68551 3.22074 8.7501 3.02489 8.75 2.82375V2.1875Z" fill="#FF7A30"/>
</svg>
