<svg width="650" height="700" viewBox="0 0 650 700" fill="none" xmlns="http://www.w3.org/2000/svg">
<path fill-rule="evenodd" clip-rule="evenodd" d="M325 0C271.957 0 221.086 21.0714 183.579 58.5786C146.071 96.0859 125 146.957 125 200C125 253.043 146.071 303.914 183.579 341.421C221.086 378.929 271.957 400 325 400C378.043 400 428.914 378.929 466.421 341.421C503.929 303.914 525 253.043 525 200C525 146.957 503.929 96.0859 466.421 58.5786C428.914 21.0714 378.043 0 325 0ZM200 200C200 166.848 213.17 135.054 236.612 111.612C260.054 88.1696 291.848 75 325 75C358.152 75 389.946 88.1696 413.388 111.612C436.83 135.054 450 166.848 450 200C450 233.152 436.83 264.946 413.388 288.388C389.946 311.83 358.152 325 325 325C291.848 325 260.054 311.83 236.612 288.388C213.17 264.946 200 233.152 200 200Z" fill="white"/>
<path d="M187.5 450C137.772 450 90.0806 469.754 54.9175 504.917C19.7544 540.081 0 587.772 0 637.5V662.5C0 672.446 3.95088 681.984 10.9835 689.016C18.0161 696.049 27.5544 700 37.5 700C47.4456 700 56.9839 696.049 64.0165 689.016C71.0491 681.984 75 672.446 75 662.5V637.5C75 607.663 86.8526 579.048 107.95 557.951C129.048 536.853 157.663 525 187.5 525H462.5C492.337 525 520.952 536.853 542.049 557.951C563.147 579.048 575 607.663 575 637.5V662.5C575 672.446 578.951 681.984 585.984 689.016C593.016 696.049 602.554 700 612.5 700C622.446 700 631.984 696.049 639.016 689.016C646.049 681.984 650 672.446 650 662.5V637.5C650 587.772 630.246 540.081 595.083 504.917C559.919 469.754 512.228 450 462.5 450H187.5Z" fill="white"/>
</svg>
