<svg width="700" height="800" viewBox="0 0 700 800" fill="none" xmlns="http://www.w3.org/2000/svg">
<path d="M262.5 300C272.446 300 281.984 303.951 289.017 310.983C296.049 318.016 300 327.554 300 337.5V612.5C300 622.446 296.049 631.984 289.017 639.016C281.984 646.049 272.446 650 262.5 650C252.554 650 243.016 646.049 235.983 639.016C228.951 631.984 225 622.446 225 612.5V337.5C225 327.554 228.951 318.016 235.983 310.983C243.016 303.951 252.554 300 262.5 300ZM475 337.5C475 327.554 471.049 318.016 464.016 310.983C456.984 303.951 447.446 300 437.5 300C427.554 300 418.016 303.951 410.984 310.983C403.951 318.016 400 327.554 400 337.5V612.5C400 622.446 403.951 631.984 410.984 639.016C418.016 646.049 427.554 650 437.5 650C447.446 650 456.984 646.049 464.016 639.016C471.049 631.984 475 622.446 475 612.5V337.5Z" fill="white"/>
<path fill-rule="evenodd" clip-rule="evenodd" d="M150 150V112.5C150 82.6631 161.853 54.0483 182.95 32.9505C204.048 11.8526 232.663 0 262.5 0L437.5 0C467.337 0 495.952 11.8526 517.05 32.9505C538.147 54.0483 550 82.6631 550 112.5V150H662.5C672.446 150 681.984 153.951 689.016 160.983C696.049 168.016 700 177.554 700 187.5C700 197.446 696.049 206.984 689.016 214.017C681.984 221.049 672.446 225 662.5 225H650V687.5C650 717.337 638.147 745.952 617.05 767.05C595.952 788.147 567.337 800 537.5 800H162.5C132.663 800 104.048 788.147 82.9505 767.05C61.8526 745.952 50 717.337 50 687.5V225H37.5C27.5544 225 18.0161 221.049 10.9835 214.017C3.95088 206.984 0 197.446 0 187.5C0 177.554 3.95088 168.016 10.9835 160.983C18.0161 153.951 27.5544 150 37.5 150H150ZM225 112.5C225 102.554 228.951 93.0161 235.983 85.9835C243.016 78.9509 252.554 75 262.5 75H437.5C447.446 75 456.984 78.9509 464.016 85.9835C471.049 93.0161 475 102.554 475 112.5V150H225V112.5ZM125 225V687.5C125 708.2 141.8 725 162.5 725H537.5C547.446 725 556.984 721.049 564.016 714.016C571.049 706.984 575 697.446 575 687.5V225H125Z" fill="white"/>
</svg>
