<svg width="501" height="501" viewBox="0 0 501 501" fill="none" xmlns="http://www.w3.org/2000/svg">
<path d="M288 38C288 28.0544 284.049 18.5161 277.016 11.4835C269.984 4.45088 260.446 0.5 250.5 0.5C240.554 0.5 231.016 4.45088 223.983 11.4835C216.951 18.5161 213 28.0544 213 38V213H38C28.0544 213 18.5161 216.951 11.4835 223.983C4.45088 231.016 0.5 240.554 0.5 250.5C0.5 260.446 4.45088 269.984 11.4835 277.016C18.5161 284.049 28.0544 288 38 288H213V463C213 472.946 216.951 482.484 223.983 489.516C231.016 496.549 240.554 500.5 250.5 500.5C260.446 500.5 269.984 496.549 277.016 489.516C284.049 482.484 288 472.946 288 463V288H463C472.946 288 482.484 284.049 489.516 277.016C496.549 269.984 500.5 260.446 500.5 250.5C500.5 240.554 496.549 231.016 489.516 223.983C482.484 216.951 472.946 213 463 213H288V38Z" fill="white"/>
</svg>
