<svg width="750" height="800" viewBox="0 0 750 800" fill="none" xmlns="http://www.w3.org/2000/svg">
<path fill-rule="evenodd" clip-rule="evenodd" d="M112.5 125H150V137.5C150 172 178 200 212.5 200H487.5C522 200 550 172 550 137.5V125H587.5C597.446 125 606.984 128.951 614.016 135.983C621.049 143.016 625 152.554 625 162.5V312.5C625 322.446 628.951 331.984 635.984 339.017C643.016 346.049 652.554 350 662.5 350C672.446 350 681.984 346.049 689.016 339.017C696.049 331.984 700 322.446 700 312.5V162.5C700 132.663 688.147 104.048 667.049 82.9505C645.952 61.8526 617.337 50 587.5 50H548.75C542.95 21.5 517.75 0 487.5 0H212.5C182.25 0 157 21.5 151.25 50H112.5C82.6631 50 54.0483 61.8526 32.9505 82.9505C11.8526 104.048 0 132.663 0 162.5V687.5C0 717.337 11.8526 745.952 32.9505 767.049C54.0483 788.147 82.6631 800 112.5 800H587.5C617.337 800 645.952 788.147 667.049 767.049C688.147 745.952 700 717.337 700 687.5V637.5C700 627.554 696.049 618.016 689.016 610.984C681.984 603.951 672.446 600 662.5 600C652.554 600 643.016 603.951 635.984 610.984C628.951 618.016 625 627.554 625 637.5V687.5C625 697.446 621.049 706.984 614.016 714.016C606.984 721.049 597.446 725 587.5 725H112.5C102.554 725 93.0161 721.049 85.9835 714.016C78.9509 706.984 75 697.446 75 687.5V162.5C75 152.554 78.9509 143.016 85.9835 135.983C93.0161 128.951 102.554 125 112.5 125ZM225 75V125H475V75H225Z" fill="white"/>
<path d="M187.5 275C177.554 275 168.016 278.951 160.983 285.983C153.951 293.016 150 302.554 150 312.5C150 322.446 153.951 331.984 160.983 339.017C168.016 346.049 177.554 350 187.5 350H337.5C347.446 350 356.984 346.049 364.016 339.017C371.049 331.984 375 322.446 375 312.5C375 302.554 371.049 293.016 364.016 285.983C356.984 278.951 347.446 275 337.5 275H187.5ZM150 612.5C150 602.554 153.951 593.016 160.983 585.984C168.016 578.951 177.554 575 187.5 575H337.5C347.446 575 356.984 578.951 364.016 585.984C371.049 593.016 375 602.554 375 612.5C375 622.446 371.049 631.984 364.016 639.016C356.984 646.049 347.446 650 337.5 650H187.5C177.554 650 168.016 646.049 160.983 639.016C153.951 631.984 150 622.446 150 612.5ZM187.5 425C177.554 425 168.016 428.951 160.983 435.984C153.951 443.016 150 452.554 150 462.5C150 472.446 153.951 481.984 160.983 489.016C168.016 496.049 177.554 500 187.5 500H287.5C297.446 500 306.984 496.049 314.017 489.016C321.049 481.984 325 472.446 325 462.5C325 452.554 321.049 443.016 314.017 435.984C306.984 428.951 297.446 425 287.5 425H187.5ZM750 462.5C750 472.446 746.049 481.984 739.016 489.016C731.984 496.049 722.446 500 712.5 500H503L564 561C567.684 564.433 570.639 568.573 572.689 573.173C574.739 577.773 575.841 582.739 575.93 587.774C576.018 592.809 575.092 597.81 573.206 602.48C571.32 607.149 568.513 611.391 564.952 614.952C561.391 618.513 557.149 621.32 552.48 623.206C547.81 625.092 542.809 626.018 537.774 625.93C532.739 625.841 527.773 624.739 523.173 622.689C518.573 620.639 514.433 617.684 511 614L386 489C379.002 481.956 375.074 472.429 375.074 462.5C375.074 452.571 379.002 443.044 386 436L511 311C514.433 307.316 518.573 304.361 523.173 302.311C527.773 300.261 532.739 299.159 537.774 299.07C542.809 298.982 547.81 299.908 552.48 301.794C557.149 303.68 561.391 306.487 564.952 310.048C568.513 313.609 571.32 317.851 573.206 322.52C575.092 327.19 576.018 332.191 575.93 337.226C575.841 342.261 574.739 347.227 572.689 351.827C570.639 356.427 567.684 360.567 564 364L503 425H712.5C722.446 425 731.984 428.951 739.016 435.984C746.049 443.016 750 452.554 750 462.5Z" fill="white"/>
</svg>
