<svg width="776" height="776" viewBox="0 0 776 776" fill="none" xmlns="http://www.w3.org/2000/svg">
<path d="M388 0.5C397.946 0.5 407.484 4.45088 414.516 11.4835C421.549 18.5161 425.5 28.0544 425.5 38V101.65C425.5 111.596 421.549 121.134 414.516 128.166C407.484 135.199 397.946 139.15 388 139.15C378.054 139.15 368.516 135.199 361.483 128.166C354.451 121.134 350.5 111.596 350.5 101.65V38C350.5 28.0544 354.451 18.5161 361.483 11.4835C368.516 4.45088 378.054 0.5 388 0.5Z" fill="white"/>
<path fill-rule="evenodd" clip-rule="evenodd" d="M188 388C188 334.957 209.071 284.086 246.579 246.579C284.086 209.071 334.957 188 388 188C441.043 188 491.914 209.071 529.421 246.579C566.929 284.086 588 334.957 588 388C588 441.043 566.929 491.914 529.421 529.421C491.914 566.929 441.043 588 388 588C334.957 588 284.086 566.929 246.579 529.421C209.071 491.914 188 441.043 188 388ZM388 263C354.848 263 323.054 276.17 299.612 299.612C276.17 323.054 263 354.848 263 388C263 421.152 276.17 452.946 299.612 476.388C323.054 499.83 354.848 513 388 513C421.152 513 452.946 499.83 476.388 476.388C499.83 452.946 513 421.152 513 388C513 354.848 499.83 323.054 476.388 299.612C452.946 276.17 421.152 263 388 263Z" fill="white"/>
<path d="M425.5 674.35C425.5 664.404 421.549 654.866 414.516 647.833C407.484 640.801 397.946 636.85 388 636.85C378.054 636.85 368.516 640.801 361.483 647.833C354.451 654.866 350.5 664.404 350.5 674.35V738C350.5 747.945 354.451 757.484 361.483 764.516C368.516 771.549 378.054 775.5 388 775.5C397.946 775.5 407.484 771.549 414.516 764.516C421.549 757.484 425.5 747.945 425.5 738V674.35ZM113.95 113.9C120.981 106.877 130.512 102.933 140.45 102.933C150.388 102.933 159.919 106.877 166.95 113.9L212.15 159.1C218.774 166.208 222.38 175.611 222.209 185.326C222.037 195.041 218.102 204.31 211.231 211.181C204.36 218.051 195.091 221.987 185.376 222.158C175.661 222.33 166.259 218.724 159.15 212.1L113.95 166.95C106.927 159.918 102.983 150.387 102.983 140.45C102.983 130.512 106.927 120.981 113.95 113.95V113.9ZM616.9 563.85C609.831 557.015 600.36 553.231 590.527 553.312C580.695 553.393 571.288 557.332 564.331 564.281C557.375 571.231 553.427 580.635 553.337 590.467C553.247 600.299 557.022 609.774 563.85 616.85L609.05 662.05C612.483 665.734 616.623 668.689 621.223 670.739C625.823 672.788 630.789 673.89 635.824 673.979C640.859 674.068 645.86 673.142 650.53 671.256C655.199 669.37 659.441 666.562 663.002 663.002C666.563 659.441 669.37 655.199 671.256 650.53C673.142 645.86 674.068 640.859 673.98 635.824C673.891 630.788 672.789 625.823 670.739 621.223C668.689 616.623 665.734 612.483 662.05 609.05L616.9 563.85ZM0.5 388C0.5 378.054 4.45088 368.516 11.4835 361.483C18.5161 354.451 28.0544 350.5 38 350.5H101.65C111.596 350.5 121.134 354.451 128.167 361.483C135.199 368.516 139.15 378.054 139.15 388C139.15 397.945 135.199 407.483 128.167 414.516C121.134 421.549 111.596 425.5 101.65 425.5H38C28.0544 425.5 18.5161 421.549 11.4835 414.516C4.45088 407.483 0.5 397.945 0.5 388ZM674.35 350.5C664.404 350.5 654.866 354.451 647.833 361.483C640.801 368.516 636.85 378.054 636.85 388C636.85 397.945 640.801 407.483 647.833 414.516C654.866 421.549 664.404 425.5 674.35 425.5H738C747.946 425.5 757.484 421.549 764.516 414.516C771.549 407.483 775.5 397.945 775.5 388C775.5 378.054 771.549 368.516 764.516 361.483C757.484 354.451 747.946 350.5 738 350.5H674.35ZM212.15 563.85C219.173 570.881 223.117 580.412 223.117 590.35C223.117 600.287 219.173 609.818 212.15 616.85L166.95 662.05C159.841 668.674 150.439 672.28 140.724 672.108C131.009 671.937 121.74 668.001 114.869 661.131C107.998 654.26 104.063 644.991 103.891 635.276C103.72 625.561 107.326 616.158 113.95 609.05L159.1 563.85C162.583 560.365 166.718 557.601 171.269 555.714C175.82 553.828 180.698 552.858 185.625 552.858C190.552 552.858 195.43 553.828 199.981 555.714C204.532 557.601 208.667 560.365 212.15 563.85ZM662.05 167C669.091 159.971 673.053 150.434 673.062 140.485C673.071 130.536 669.128 120.991 662.1 113.95C658.62 110.463 654.487 107.696 649.938 105.807C645.389 103.917 640.511 102.942 635.585 102.938C625.637 102.928 616.091 106.871 609.05 113.9L563.85 159.1C560.166 162.533 557.211 166.673 555.161 171.273C553.111 175.873 552.009 180.838 551.92 185.873C551.832 190.909 552.758 195.91 554.644 200.579C556.53 205.249 559.337 209.491 562.898 213.052C566.459 216.612 570.701 219.42 575.37 221.306C580.04 223.192 585.041 224.118 590.076 224.029C595.111 223.94 600.077 222.838 604.677 220.789C609.277 218.739 613.417 215.784 616.85 212.1L662.05 167Z" fill="white"/>
</svg>
