<svg width="655" height="655" viewBox="0 0 655 655" fill="none" xmlns="http://www.w3.org/2000/svg">
<path fill-rule="evenodd" clip-rule="evenodd" d="M587.4 25.8501C579.275 17.724 569.628 11.278 559.012 6.88014C548.395 2.4823 537.016 0.21875 525.525 0.21875C514.034 0.21875 502.655 2.4823 492.038 6.88014C481.422 11.278 471.775 17.724 463.65 25.8501L101 388.45C87.8299 401.613 77.4705 417.314 70.55 434.6L3.2 603.1C0.486668 609.912 -0.169859 617.371 1.31164 624.552C2.79315 631.734 6.34767 638.324 11.5354 643.506C16.7232 648.689 23.3165 652.236 30.4996 653.71C37.6827 655.185 45.1404 654.52 51.95 651.8L220.35 584.45C237.659 577.521 253.377 567.144 266.55 553.95L629.15 191.35C637.276 183.225 643.722 173.578 648.12 162.962C652.518 152.345 654.781 140.966 654.781 129.475C654.781 117.984 652.518 106.605 648.12 95.9882C643.722 85.3716 637.276 75.7253 629.15 67.6001L587.4 25.8501ZM516.65 78.8501C517.811 77.686 519.191 76.7624 520.709 76.1322C522.228 75.5021 523.856 75.1777 525.5 75.1777C527.144 75.1777 528.772 75.5021 530.291 76.1322C531.809 76.7624 533.189 77.686 534.35 78.8501L576.15 120.65C577.314 121.811 578.238 123.191 578.868 124.709C579.498 126.228 579.822 127.856 579.822 129.5C579.822 131.144 579.498 132.772 578.868 134.291C578.238 135.81 577.314 137.189 576.15 138.35L544.25 170.2L484.75 110.7L516.65 78.8501ZM431.75 163.8L154 441.5C148.008 447.489 143.296 454.634 140.15 462.5L105.25 549.7L192.45 514.8C200.3 511.65 207.45 506.95 213.45 500.95L491.15 223.25L431.65 163.75L431.75 163.8Z" fill="white"/>
</svg>
