<svg width="701" height="702" viewBox="0 0 701 702" fill="none" xmlns="http://www.w3.org/2000/svg">
<path fill-rule="evenodd" clip-rule="evenodd" d="M355.5 20.1C359.054 26.4022 360.709 33.5979 360.265 40.8195C359.822 48.0411 357.299 54.9802 353 60.8C323.63 100.487 309.487 149.4 313.145 198.636C316.803 247.873 338.018 294.159 372.93 329.071C407.841 363.982 454.127 385.197 503.364 388.855C552.6 392.513 601.513 378.37 641.2 349C647.018 344.694 653.958 342.163 661.183 341.714C668.407 341.265 675.607 342.916 681.914 346.469C688.221 350.021 693.365 355.323 696.725 361.734C700.085 368.146 701.518 375.392 700.85 382.6C694.726 448.931 669.839 512.145 629.099 564.847C588.358 617.549 533.451 657.559 470.802 680.194C408.153 702.828 340.353 707.153 275.336 692.66C210.319 678.168 150.774 645.459 103.669 598.359C56.5635 551.26 23.8463 491.72 9.34542 426.704C-5.15542 361.689 -0.840021 293.889 21.7867 231.237C44.4133 168.585 84.4154 113.672 137.112 72.9254C189.809 32.1785 253.02 7.2823 319.35 1.15002C326.562 0.480098 333.814 1.91314 340.229 5.27599C346.644 8.63885 351.948 13.7876 355.5 20.1ZM252.5 93.1C209.676 109.624 171.657 136.58 141.892 171.522C112.127 206.464 91.5587 248.286 82.0543 293.193C72.5498 338.099 74.4099 384.668 87.4656 428.673C100.521 472.678 124.359 512.727 156.816 545.184C189.273 577.641 229.322 601.479 273.327 614.534C317.332 627.59 363.901 629.45 408.807 619.946C453.714 610.441 495.536 589.873 530.478 560.108C565.42 530.343 592.376 492.324 608.9 449.5C559.244 466.328 505.871 468.931 454.814 457.015C403.756 445.098 357.05 419.137 319.974 382.066C282.898 344.996 256.931 298.293 245.007 247.237C233.083 196.181 235.679 142.758 252.5 93.1Z" fill="white"/>
</svg>
