<svg width="698" height="698" viewBox="0 0 698 698" fill="none" xmlns="http://www.w3.org/2000/svg">
<path fill-rule="evenodd" clip-rule="evenodd" d="M406.05 17.9998C417.808 6.45019 433.651 0.012158 450.132 0.0870723C466.613 0.161987 482.398 6.74378 494.05 18.3998L679.4 203.8C685.205 209.604 689.811 216.494 692.953 224.078C696.094 231.662 697.712 239.791 697.712 248C697.712 256.209 696.094 264.337 692.953 271.921C689.811 279.505 685.205 286.396 679.4 292.2L578.7 392.9C571.674 399.934 562.142 403.891 552.2 403.9H494.2L422.6 475.5L410.2 587.05C405.05 633.25 352.2 658.8 312.95 631.05C284.05 610.6 240.05 578.45 203.95 547.05L64 687.05C56.9242 693.878 47.4498 697.653 37.6175 697.563C27.7851 697.473 18.3814 693.525 11.4319 686.568C4.48232 679.612 0.542917 670.205 0.462143 660.372C0.38137 650.54 4.16569 641.069 11 634L150.95 494C119.55 457.95 87.4 414 66.95 385C39.2 345.8 64.75 292.95 110.95 287.8L222.45 275.4L291.8 206.1V145.8C291.804 140.817 292.801 135.885 294.733 131.293C296.664 126.7 299.492 122.538 303.05 119.05L406 17.9998H406.05ZM449.75 80.1998L366.75 161.5V221.6C366.755 231.535 362.816 241.066 355.8 248.1L266.2 337.75C260.185 343.764 252.304 347.555 243.85 348.5L141.2 359.9C167 395.55 201.3 440.4 229.45 468.55C257.6 496.7 302.45 531.05 338.1 556.8L349.5 454.15C350.445 445.696 354.236 437.815 360.25 431.8L452.15 339.85C459.176 332.815 468.708 328.859 478.65 328.85H536.65L617.55 248L449.75 80.1998Z" fill="white"/>
</svg>
