<svg width="20" height="20" viewBox="0 0 20 20" fill="none" xmlns="http://www.w3.org/2000/svg">
<path d="M9.99996 18.3333C5.39746 18.3333 1.66663 14.6025 1.66663 9.99999C1.66663 5.39749 5.39746 1.66666 9.99996 1.66666C14.6025 1.66666 18.3333 5.39749 18.3333 9.99999C18.3333 14.6025 14.6025 18.3333 9.99996 18.3333ZM9.99996 16.6667C11.7681 16.6667 13.4638 15.9643 14.714 14.714C15.9642 13.4638 16.6666 11.7681 16.6666 9.99999C16.6666 8.23188 15.9642 6.53619 14.714 5.28594C13.4638 4.0357 11.7681 3.33332 9.99996 3.33332C8.23185 3.33332 6.53616 4.0357 5.28591 5.28594C4.03567 6.53619 3.33329 8.23188 3.33329 9.99999C3.33329 11.7681 4.03567 13.4638 5.28591 14.714C6.53616 15.9643 8.23185 16.6667 9.99996 16.6667ZM6.66663 11.6667H13.3333V13.3333H6.66663V11.6667ZM6.66663 9.16666C6.33511 9.16666 6.01716 9.03496 5.78274 8.80054C5.54832 8.56612 5.41663 8.24818 5.41663 7.91666C5.41663 7.58514 5.54832 7.26719 5.78274 7.03277C6.01716 6.79835 6.33511 6.66666 6.66663 6.66666C6.99815 6.66666 7.31609 6.79835 7.55051 7.03277C7.78493 7.26719 7.91663 7.58514 7.91663 7.91666C7.91663 8.24818 7.78493 8.56612 7.55051 8.80054C7.31609 9.03496 6.99815 9.16666 6.66663 9.16666ZM13.3333 9.16666C13.0018 9.16666 12.6838 9.03496 12.4494 8.80054C12.215 8.56612 12.0833 8.24818 12.0833 7.91666C12.0833 7.58514 12.215 7.26719 12.4494 7.03277C12.6838 6.79835 13.0018 6.66666 13.3333 6.66666C13.6648 6.66666 13.9828 6.79835 14.2172 7.03277C14.4516 7.26719 14.5833 7.58514 14.5833 7.91666C14.5833 8.24818 14.4516 8.56612 14.2172 8.80054C13.9828 9.03496 13.6648 9.16666 13.3333 9.16666Z" fill="#939B9D"/>
</svg>
