<svg width="20" height="20" viewBox="0 0 20 20" fill="none" xmlns="http://www.w3.org/2000/svg">
<path d="M10 18.3333C5.39752 18.3333 1.66669 14.6025 1.66669 9.99996C1.66669 5.39746 5.39752 1.66663 10 1.66663C14.6025 1.66663 18.3334 5.39746 18.3334 9.99996C18.3334 14.6025 14.6025 18.3333 10 18.3333ZM10 16.6666C11.7681 16.6666 13.4638 15.9642 14.7141 14.714C15.9643 13.4638 16.6667 11.7681 16.6667 9.99996C16.6667 8.23185 15.9643 6.53616 14.7141 5.28591C13.4638 4.03567 11.7681 3.33329 10 3.33329C8.23191 3.33329 6.53622 4.03567 5.28598 5.28591C4.03573 6.53616 3.33335 8.23185 3.33335 9.99996C3.33335 11.7681 4.03573 13.4638 5.28598 14.714C6.53622 15.9642 8.23191 16.6666 10 16.6666ZM5.83335 14.1666C5.83335 13.0616 6.27234 12.0017 7.05374 11.2203C7.83514 10.4389 8.89495 9.99996 10 9.99996C11.1051 9.99996 12.1649 10.4389 12.9463 11.2203C13.7277 12.0017 14.1667 13.0616 14.1667 14.1666H12.5C12.5 13.5036 12.2366 12.8677 11.7678 12.3989C11.2989 11.93 10.6631 11.6666 10 11.6666C9.33698 11.6666 8.70109 11.93 8.23225 12.3989C7.76341 12.8677 7.50002 13.5036 7.50002 14.1666H5.83335ZM6.66669 9.16663C6.33517 9.16663 6.01722 9.03493 5.7828 8.80051C5.54838 8.56609 5.41669 8.24815 5.41669 7.91663C5.41669 7.58511 5.54838 7.26716 5.7828 7.03274C6.01722 6.79832 6.33517 6.66663 6.66669 6.66663C6.99821 6.66663 7.31615 6.79832 7.55057 7.03274C7.78499 7.26716 7.91669 7.58511 7.91669 7.91663C7.91669 8.24815 7.78499 8.56609 7.55057 8.80051C7.31615 9.03493 6.99821 9.16663 6.66669 9.16663ZM13.3334 9.16663C13.0018 9.16663 12.6839 9.03493 12.4495 8.80051C12.215 8.56609 12.0834 8.24815 12.0834 7.91663C12.0834 7.58511 12.215 7.26716 12.4495 7.03274C12.6839 6.79832 13.0018 6.66663 13.3334 6.66663C13.6649 6.66663 13.9828 6.79832 14.2172 7.03274C14.4517 7.26716 14.5834 7.58511 14.5834 7.91663C14.5834 8.24815 14.4517 8.56609 14.2172 8.80051C13.9828 9.03493 13.6649 9.16663 13.3334 9.16663Z" fill="#FF0000"/>
</svg>
