<svg width="20" height="20" viewBox="0 0 20 20" fill="none" xmlns="http://www.w3.org/2000/svg">
<path d="M10.0001 18.3333C5.39758 18.3333 1.66675 14.6025 1.66675 9.99999C1.66675 5.39749 5.39758 1.66666 10.0001 1.66666C14.6026 1.66666 18.3334 5.39749 18.3334 9.99999C18.3334 14.6025 14.6026 18.3333 10.0001 18.3333ZM10.0001 16.6667C11.7682 16.6667 13.4639 15.9643 14.7141 14.714C15.9644 13.4638 16.6667 11.7681 16.6667 9.99999C16.6667 8.23188 15.9644 6.53619 14.7141 5.28594C13.4639 4.0357 11.7682 3.33332 10.0001 3.33332C8.23197 3.33332 6.53628 4.0357 5.28604 5.28594C4.03579 6.53619 3.33341 8.23188 3.33341 9.99999C3.33341 11.7681 4.03579 13.4638 5.28604 14.714C6.53628 15.9643 8.23197 16.6667 10.0001 16.6667ZM6.66675 10.8333H13.3334C13.3334 11.7174 12.9822 12.5652 12.3571 13.1903C11.732 13.8155 10.8841 14.1667 10.0001 14.1667C9.11603 14.1667 8.26818 13.8155 7.64306 13.1903C7.01794 12.5652 6.66675 11.7174 6.66675 10.8333ZM6.66675 9.16666C6.33523 9.16666 6.01728 9.03496 5.78286 8.80054C5.54844 8.56612 5.41675 8.24818 5.41675 7.91666C5.41675 7.58514 5.54844 7.26719 5.78286 7.03277C6.01728 6.79835 6.33523 6.66666 6.66675 6.66666C6.99827 6.66666 7.31621 6.79835 7.55063 7.03277C7.78505 7.26719 7.91675 7.58514 7.91675 7.91666C7.91675 8.24818 7.78505 8.56612 7.55063 8.80054C7.31621 9.03496 6.99827 9.16666 6.66675 9.16666ZM13.3334 9.16666C13.0019 9.16666 12.684 9.03496 12.4495 8.80054C12.2151 8.56612 12.0834 8.24818 12.0834 7.91666C12.0834 7.58514 12.2151 7.26719 12.4495 7.03277C12.684 6.79835 13.0019 6.66666 13.3334 6.66666C13.6649 6.66666 13.9829 6.79835 14.2173 7.03277C14.4517 7.26719 14.5834 7.58514 14.5834 7.91666C14.5834 8.24818 14.4517 8.56612 14.2173 8.80054C13.9829 9.03496 13.6649 9.16666 13.3334 9.16666Z" fill="#939B9D"/>
</svg>
