<svg width="20" height="20" viewBox="0 0 20 20" fill="none" xmlns="http://www.w3.org/2000/svg">
<path d="M10 18.3333C5.39752 18.3333 1.66669 14.6025 1.66669 10C1.66669 5.39751 5.39752 1.66667 10 1.66667C14.6025 1.66667 18.3334 5.39751 18.3334 10C18.3334 14.6025 14.6025 18.3333 10 18.3333ZM10 16.6667C11.7681 16.6667 13.4638 15.9643 14.7141 14.7141C15.9643 13.4638 16.6667 11.7681 16.6667 10C16.6667 8.23189 15.9643 6.5362 14.7141 5.28596C13.4638 4.03572 11.7681 3.33334 10 3.33334C8.23191 3.33334 6.53622 4.03572 5.28598 5.28596C4.03573 6.5362 3.33335 8.23189 3.33335 10C3.33335 11.7681 4.03573 13.4638 5.28598 14.7141C6.53622 15.9643 8.23191 16.6667 10 16.6667ZM6.66669 11.6667H13.3334V13.3333H6.66669V11.6667ZM6.66669 9.16667C6.33517 9.16667 6.01722 9.03498 5.7828 8.80056C5.54838 8.56613 5.41669 8.24819 5.41669 7.91667C5.41669 7.58515 5.54838 7.26721 5.7828 7.03279C6.01722 6.79837 6.33517 6.66667 6.66669 6.66667C6.99821 6.66667 7.31615 6.79837 7.55057 7.03279C7.78499 7.26721 7.91669 7.58515 7.91669 7.91667C7.91669 8.24819 7.78499 8.56613 7.55057 8.80056C7.31615 9.03498 6.99821 9.16667 6.66669 9.16667ZM13.3334 9.16667C13.0018 9.16667 12.6839 9.03498 12.4495 8.80056C12.215 8.56613 12.0834 8.24819 12.0834 7.91667C12.0834 7.58515 12.215 7.26721 12.4495 7.03279C12.6839 6.79837 13.0018 6.66667 13.3334 6.66667C13.6649 6.66667 13.9828 6.79837 14.2172 7.03279C14.4517 7.26721 14.5834 7.58515 14.5834 7.91667C14.5834 8.24819 14.4517 8.56613 14.2172 8.80056C13.9828 9.03498 13.6649 9.16667 13.3334 9.16667Z" fill="#FFFB00"/>
</svg>
