<svg width="20" height="20" viewBox="0 0 20 20" fill="none" xmlns="http://www.w3.org/2000/svg">
<path d="M10 1.66666C14.6025 1.66666 18.3334 5.39749 18.3334 9.99999C18.3334 14.6025 14.6025 18.3333 10 18.3333C5.39752 18.3333 1.66669 14.6025 1.66669 9.99999C1.66669 5.39749 5.39752 1.66666 10 1.66666ZM10 3.33332C8.23191 3.33332 6.53622 4.0357 5.28598 5.28594C4.03573 6.53619 3.33335 8.23188 3.33335 9.99999C3.33335 11.7681 4.03573 13.4638 5.28598 14.714C6.53622 15.9643 8.23191 16.6667 10 16.6667C11.7681 16.6667 13.4638 15.9643 14.7141 14.714C15.9643 13.4638 16.6667 11.7681 16.6667 9.99999C16.6667 8.23188 15.9643 6.53619 14.7141 5.28594C13.4638 4.0357 11.7681 3.33332 10 3.33332ZM10 9.16666C11.6667 9.16666 13.0559 9.44416 14.1667 9.99999C14.1667 11.1051 13.7277 12.1649 12.9463 12.9463C12.1649 13.7277 11.1051 14.1667 10 14.1667C8.89495 14.1667 7.83514 13.7277 7.05374 12.9463C6.27234 12.1649 5.83335 11.1051 5.83335 9.99999C6.94419 9.44416 8.33335 9.16666 10 9.16666ZM7.08335 5.83332C7.56363 5.83323 8.02918 5.99907 8.40123 6.30278C8.77328 6.60649 9.02897 7.02942 9.12502 7.49999H5.04169C5.13774 7.02942 5.39343 6.60649 5.76548 6.30278C6.13753 5.99907 6.60308 5.83323 7.08335 5.83332ZM12.9167 5.83332C13.397 5.83323 13.8625 5.99907 14.2346 6.30278C14.6066 6.60649 14.8623 7.02942 14.9584 7.49999H10.875C10.9711 7.02942 11.2268 6.60649 11.5988 6.30278C11.9709 5.99907 12.4364 5.83323 12.9167 5.83332Z" fill="#00FF19"/>
</svg>
