<svg width="20" height="20" viewBox="0 0 20 20" fill="none" xmlns="http://www.w3.org/2000/svg">
<path d="M9.99996 1.66666C14.6025 1.66666 18.3333 5.39749 18.3333 9.99999C18.3333 14.6025 14.6025 18.3333 9.99996 18.3333C5.39746 18.3333 1.66663 14.6025 1.66663 9.99999C1.66663 5.39749 5.39746 1.66666 9.99996 1.66666ZM9.99996 3.33332C8.23185 3.33332 6.53616 4.0357 5.28591 5.28594C4.03567 6.53619 3.33329 8.23188 3.33329 9.99999C3.33329 11.7681 4.03567 13.4638 5.28591 14.714C6.53616 15.9643 8.23185 16.6667 9.99996 16.6667C11.7681 16.6667 13.4638 15.9643 14.714 14.714C15.9642 13.4638 16.6666 11.7681 16.6666 9.99999C16.6666 8.23188 15.9642 6.53619 14.714 5.28594C13.4638 4.0357 11.7681 3.33332 9.99996 3.33332ZM9.99996 9.16666C11.6666 9.16666 13.0558 9.44416 14.1666 9.99999C14.1666 11.1051 13.7276 12.1649 12.9462 12.9463C12.1648 13.7277 11.105 14.1667 9.99996 14.1667C8.89489 14.1667 7.83508 13.7277 7.05368 12.9463C6.27228 12.1649 5.83329 11.1051 5.83329 9.99999C6.94413 9.44416 8.33329 9.16666 9.99996 9.16666ZM7.08329 5.83332C7.56356 5.83323 8.02912 5.99907 8.40117 6.30278C8.77322 6.60649 9.0289 7.02942 9.12496 7.49999H5.04163C5.13768 7.02942 5.39337 6.60649 5.76542 6.30278C6.13746 5.99907 6.60302 5.83323 7.08329 5.83332ZM12.9166 5.83332C13.3969 5.83323 13.8625 5.99907 14.2345 6.30278C14.6065 6.60649 14.8622 7.02942 14.9583 7.49999H10.875C10.971 7.02942 11.2267 6.60649 11.5987 6.30278C11.9708 5.99907 12.4364 5.83323 12.9166 5.83332Z" fill="#939B9D"/>
</svg>
