<svg width="20" height="20" viewBox="0 0 20 20" fill="none" xmlns="http://www.w3.org/2000/svg">
<path fill-rule="evenodd" clip-rule="evenodd" d="M12.1091 0.490024C13.1507 0.00337058 14.2942 -0.123512 15.3982 0.125078C16.5022 0.373667 17.5182 0.986819 18.3205 1.88866C18.8523 2.48478 19.2747 3.19613 19.5631 3.98111C19.8515 4.76608 20 5.60892 20 6.4603C20 7.31168 19.8515 8.15451 19.5631 8.93948C19.2747 9.72446 18.8523 10.4358 18.3205 11.0319L10.6569 19.6909C10.4815 19.8889 10.2448 20 9.99825 20C9.75169 20 9.51505 19.8889 9.33962 19.6909L1.67471 11.0334C1.14482 10.4359 0.723936 9.7242 0.43646 8.93944C0.148983 8.15469 0.000630451 7.31251 0 6.46172C0.000465069 5.6107 0.148738 4.76825 0.436219 3.98324C0.7237 3.19822 1.14467 2.48627 1.67471 1.88866C2.74896 0.677331 4.19755 -0.00124773 5.7065 1.72239e-06C7.21624 1.72239e-06 8.66724 0.678604 9.7383 1.88866L9.99825 2.18153L10.2582 1.88866C10.7889 1.28878 11.4173 0.81361 12.1079 0.490024H12.1091ZM17.0033 3.41159C16.2783 2.60061 15.3043 2.14647 14.29 2.14647C13.2757 2.14647 12.3017 2.60061 11.5767 3.41159L10.6569 4.4502C10.4815 4.64825 10.2448 4.75931 9.99825 4.75931C9.75169 4.75931 9.51505 4.64825 9.33962 4.4502L8.41978 3.41301C7.69696 2.59862 6.72266 2.14235 5.70775 2.14296C4.68668 2.14296 3.7106 2.60012 2.99323 3.41301C2.63964 3.81105 2.3587 4.28537 2.16669 4.80846C1.97468 5.33156 1.87542 5.89302 1.87467 6.4603C1.87525 7.02781 1.97443 7.58955 2.16645 8.1129C2.35846 8.63625 2.63949 9.1108 2.99323 9.50901L9.99825 17.4237L17.0033 9.50901C17.3582 9.10756 17.6407 8.63182 17.8319 8.10894C18.122 7.32132 18.1981 6.45214 18.0504 5.61441C17.9026 4.77667 17.5377 4.00914 17.0033 3.41159Z" fill="#FF3030"/>
</svg>
